# xmcd CD database file
#
# Track frame offsets:
#	150
#	22653
#	62647
#	86722
#	118939
#	153013
#	177813
#	211085
#	231162
#
# Disc length: 3425 seconds
#
# Revision: 0
# Processed by: cddbd v1.5.2PL0 Copyright (c) Steve Scherf et al.
# Submitted via: CDex 1.70beta2
#
DISCID=650d5f09
DTITLE=Zbigniew Namylowski - Remy Filipovitch Quintet - Go
DYEAR=2003
DGENRE=Jazz
TTITLE0=From The Bottom Drawer
TTITLE1=From The Other Side
TTITLE2=Go!
TTITLE3=Listen To The Wind
TTITLE4=Juzto na Juz na 4
TTITLE5=From The Second Shelf
TTITLE6=All That Dust
TTITLE7=All Night Long
TTITLE8=Jil
EXTD=YEAR: 2003
EXTT0=
EXTT1=
EXTT2=
EXTT3=
EXTT4=
EXTT5=
EXTT6=
EXTT7=
EXTT8=
PLAYORDER=
